<?xml version="1.0" standalone="no"?>
<!DOCTYPE svg PUBLIC "-//W3C//DTD SVG 20010904//EN"
 "http://www.w3.org/TR/2001/REC-SVG-20010904/DTD/svg10.dtd">
<svg version="1.0" xmlns="http://www.w3.org/2000/svg"
 width="1100.000000pt" height="250.000000pt" viewBox="0 0 1100.000000 250.000000"
 preserveAspectRatio="xMidYMid meet">

<g transform="translate(0.000000,250.000000) scale(0.100000,-0.100000)"
fill="#000000" stroke="none">
<path d="M722 2325 c-38 -20 -85 -52 -104 -73 -39 -43 -493 -824 -520 -895
-22 -58 -24 -159 -3 -218 23 -64 474 -844 518 -895 23 -26 64 -56 105 -76 l67
-33 530 0 530 0 57 28 c100 49 127 86 370 509 125 217 237 416 250 444 17 37
22 68 22 129 0 102 5 92 -273 575 -191 332 -230 393 -280 441 -106 102 -87 99
-685 99 l-513 0 -71 -35z m1113 -134 c22 -10 52 -31 67 -47 14 -16 84 -128
153 -249 70 -121 169 -292 221 -381 51 -88 98 -173 103 -187 13 -34 16 -114 6
-147 -12 -40 -458 -810 -485 -837 -60 -60 -39 -58 -592 -58 l-506 0 -44 30
c-38 27 -72 81 -283 445 l-240 415 0 70 0 70 159 275 c88 151 195 337 239 413
80 139 117 180 174 197 15 4 244 9 508 9 447 1 483 -1 520 -18z"/>
<path d="M886 2065 c-67 -24 -86 -46 -185 -215 -93 -159 -96 -167 -96 -226 0
-58 4 -67 88 -212 48 -83 87 -156 87 -160 0 -5 -30 -60 -66 -123 -110 -190
-117 -205 -112 -269 3 -47 15 -76 78 -185 107 -188 124 -212 180 -240 l49 -25
404 0 403 0 51 25 c28 14 59 38 69 53 59 89 183 318 188 347 10 53 -7 98 -95
250 -45 77 -82 145 -82 150 0 6 34 70 76 143 136 233 136 237 22 439 -107 189
-122 209 -179 238 l-50 25 -395 0 c-314 -1 -404 -4 -435 -15z m718 -166 c-8
-17 -36 -65 -60 -106 -24 -41 -44 -79 -44 -84 0 -5 -146 -9 -355 -9 -195 0
-355 2 -355 5 0 3 27 52 61 110 42 73 67 105 82 108 12 2 172 5 355 6 l333 1
-17 -31z m276 -282 c0 -18 -120 -231 -126 -224 -18 18 -124 217 -124 232 0 12
28 68 61 124 l61 104 64 -109 c35 -60 64 -117 64 -127z m-243 -322 c79 -137
158 -274 174 -302 l30 -53 -353 0 -353 0 -172 299 c-95 165 -173 302 -173 305
0 4 158 5 351 4 l351 -3 145 -250z m-655 -388 c20 -37 20 -40 4 -75 -20 -43
-106 -192 -111 -192 -10 0 -125 212 -125 231 0 18 83 178 113 217 9 11 48 -47
119 -181z m847 -139 c-48 -90 -113 -189 -129 -198 -20 -11 -690 -15 -690 -4 0
4 28 55 63 115 l62 109 353 0 353 0 -12 -22z"/>
<path d="M3045 1723 c-48 -6 -127 -34 -165 -58 -78 -50 -113 -116 -113 -210 1
-140 80 -213 313 -290 131 -43 175 -100 138 -179 -16 -36 -83 -66 -145 -66
-66 0 -164 31 -210 66 l-36 28 -53 -60 c-30 -32 -54 -62 -54 -66 0 -13 113
-81 168 -100 34 -12 94 -23 149 -26 161 -8 272 26 350 110 50 56 68 104 67
190 -2 151 -78 222 -324 303 -97 32 -140 67 -140 113 0 40 46 79 104 87 70 11
178 -19 227 -62 15 -12 22 -8 68 44 l51 58 -36 32 c-73 64 -233 103 -359 86z"/>
<path d="M8663 1715 c-250 -56 -375 -299 -318 -619 27 -151 96 -250 213 -304
44 -20 77 -26 151 -30 109 -5 187 10 289 58 l62 29 0 230 0 231 -173 0 -173 0
10 -75 9 -75 59 0 58 0 0 -109 0 -109 -36 -12 c-20 -7 -63 -10 -97 -8 -54 4
-63 8 -93 41 -48 52 -67 127 -67 267 -1 145 18 214 74 274 69 76 169 85 264
25 l48 -30 34 33 c19 18 43 45 54 60 l19 26 -42 31 c-90 67 -228 93 -345 66z"/>
<path d="M3692 1338 l3 -363 27 -50 c34 -64 80 -108 143 -137 43 -20 66 -23
165 -23 96 0 123 4 161 21 66 31 114 78 146 142 l28 57 3 358 3 357 -106 0
-105 0 0 -262 c0 -395 -14 -481 -80 -508 -42 -17 -110 -7 -132 20 -35 43 -40
92 -45 423 l-5 327 -105 0 -104 0 3 -362z"/>
<path d="M4649 1698 c-1 -2 -13 -209 -28 -460 l-26 -458 91 0 91 0 7 250 c3
137 4 294 2 347 -6 117 -7 121 53 -187 l47 -245 82 -3 c78 -3 82 -2 87 20 3
13 23 127 46 253 22 127 42 235 44 240 1 6 3 -118 4 -275 0 -157 4 -311 7
-342 l7 -58 91 0 91 0 -26 458 c-15 251 -27 458 -28 460 0 1 -50 2 -110 2
-105 0 -109 -1 -114 -22 -3 -13 -24 -144 -48 -291 -29 -181 -46 -261 -51 -245
-4 12 -25 131 -48 263 -22 132 -43 252 -46 268 l-6 27 -109 0 c-60 0 -110 -1
-110 -2z"/>
<path d="M5580 1240 l0 -460 178 0 c215 0 287 10 372 53 83 42 120 96 127 190
6 70 -6 121 -39 162 -21 27 -106 75 -133 75 -8 0 -15 5 -15 10 0 6 6 10 13 10
8 0 33 14 56 31 115 82 105 268 -17 337 -75 42 -143 52 -349 52 l-193 0 0
-460z m365 296 c41 -17 55 -42 55 -96 0 -64 -38 -96 -122 -105 -37 -4 -71 -4
-77 0 -7 4 -11 47 -11 111 l0 104 60 0 c33 0 76 -6 95 -14z m43 -373 c15 -11
34 -39 42 -61 13 -37 13 -47 0 -83 -21 -59 -62 -79 -162 -79 l-78 0 0 126 0
127 85 -5 c65 -3 92 -9 113 -25z"/>
<path d="M6697 1693 c-6 -10 -277 -899 -277 -908 0 -3 50 -4 112 -3 l112 3 24
98 24 98 137 -3 136 -3 23 -97 24 -98 115 0 c115 0 115 0 110 23 -4 12 -66
219 -139 459 l-133 438 -132 0 c-72 0 -134 -3 -136 -7z m183 -358 l47 -195
-100 0 c-90 0 -99 2 -95 18 3 9 24 99 48 199 24 101 46 181 48 178 3 -2 26
-92 52 -200z"/>
<path d="M7440 1240 l0 -460 90 0 90 0 0 258 c0 141 -5 296 -11 345 -6 48 -9
91 -7 96 2 5 55 -150 118 -345 l115 -354 133 0 132 0 0 460 0 460 -90 0 -90 0
0 -257 c0 -142 5 -298 11 -346 6 -49 9 -90 7 -92 -1 -2 -53 153 -113 343
l-111 347 -137 3 -137 3 0 -461z"/>
<path d="M9497 1693 c-6 -10 -277 -899 -277 -908 0 -3 50 -4 112 -3 l112 3 24
98 24 98 137 -3 136 -3 23 -97 24 -98 115 0 c115 0 115 0 110 23 -4 12 -66
219 -139 459 l-133 438 -132 0 c-72 0 -134 -3 -136 -7z m183 -358 l47 -195
-100 0 c-90 0 -99 2 -95 18 3 9 24 99 48 199 24 101 46 181 48 178 3 -2 26
-92 52 -200z"/>
<path d="M10240 1240 l0 -460 90 0 90 0 0 258 c0 141 -5 296 -11 345 -6 48 -9
91 -7 96 2 5 55 -150 118 -345 l115 -354 133 0 132 0 0 460 0 460 -90 0 -90 0
0 -257 c0 -142 5 -298 11 -346 6 -49 9 -90 7 -92 -1 -2 -53 153 -113 343
l-111 347 -137 3 -137 3 0 -461z"/>
</g>
</svg>
