<?xml version="1.0" standalone="no"?>
<!DOCTYPE svg PUBLIC "-//W3C//DTD SVG 20010904//EN"
 "http://www.w3.org/TR/2001/REC-SVG-20010904/DTD/svg10.dtd">
<svg version="1.0" xmlns="http://www.w3.org/2000/svg"
 width="250.000000pt" height="250.000000pt" viewBox="0 0 250.000000 250.000000"
 preserveAspectRatio="xMidYMid meet">

<g transform="translate(0.000000,250.000000) scale(0.100000,-0.100000)"
fill="#000000" stroke="none">
<path d="M662 2325 c-38 -20 -85 -52 -104 -73 -39 -43 -493 -824 -520 -895
-22 -58 -24 -159 -3 -218 23 -64 474 -844 518 -895 23 -26 64 -56 105 -76 l67
-33 530 0 530 0 57 28 c100 49 127 86 370 509 125 217 237 416 250 444 17 37
22 68 22 129 0 102 5 92 -273 575 -191 332 -230 393 -280 441 -106 102 -87 99
-685 99 l-513 0 -71 -35z m1113 -134 c22 -10 52 -31 67 -47 14 -16 84 -128
153 -249 70 -121 169 -292 221 -381 51 -88 98 -173 103 -187 13 -34 16 -114 6
-147 -12 -40 -458 -810 -485 -837 -60 -60 -39 -58 -592 -58 l-506 0 -44 30
c-38 27 -72 81 -283 445 l-240 415 0 70 0 70 159 275 c88 151 195 337 239 413
80 139 117 180 174 197 15 4 244 9 508 9 447 1 483 -1 520 -18z"/>
<path d="M826 2065 c-67 -24 -86 -46 -185 -215 -93 -159 -96 -167 -96 -226 0
-58 4 -67 88 -212 48 -83 87 -156 87 -160 0 -5 -30 -60 -66 -123 -110 -190
-117 -205 -112 -269 3 -47 15 -76 78 -185 107 -188 124 -212 180 -240 l49 -25
404 0 403 0 51 25 c28 14 59 38 69 53 59 89 183 318 188 347 10 53 -7 98 -95
250 -45 77 -82 145 -82 150 0 6 34 70 76 143 136 233 136 237 22 439 -107 189
-122 209 -179 238 l-50 25 -395 0 c-314 -1 -404 -4 -435 -15z m718 -166 c-8
-17 -36 -65 -60 -106 -24 -41 -44 -79 -44 -84 0 -5 -146 -9 -355 -9 -195 0
-355 2 -355 5 0 3 27 52 61 110 42 73 67 105 82 108 12 2 172 5 355 6 l333 1
-17 -31z m276 -282 c0 -18 -120 -231 -126 -224 -18 18 -124 217 -124 232 0 12
28 68 61 124 l61 104 64 -109 c35 -60 64 -117 64 -127z m-243 -322 c79 -137
158 -274 174 -302 l30 -53 -353 0 -353 0 -172 299 c-95 165 -173 302 -173 305
0 4 158 5 351 4 l351 -3 145 -250z m-655 -388 c20 -37 20 -40 4 -75 -20 -43
-106 -192 -111 -192 -10 0 -125 212 -125 231 0 18 83 178 113 217 9 11 48 -47
119 -181z m847 -139 c-48 -90 -113 -189 -129 -198 -20 -11 -690 -15 -690 -4 0
4 28 55 63 115 l62 109 353 0 353 0 -12 -22z"/>
</g>
</svg>
